<?xml version="1.0" encoding="utf-8"?>
<!-- Generator: Adobe Illustrator 19.1.0, SVG Export Plug-In . SVG Version: 6.00 Build 0)  -->
<svg version="1.1" id="Layer_1" xmlns="http://www.w3.org/2000/svg" xmlns:xlink="http://www.w3.org/1999/xlink" x="0px" y="0px"
	 viewBox="199.2 -242.1 590.8 82.4" style="enable-background:new 199.2 -242.1 590.8 82.4;" xml:space="preserve">
<style type="text/css">
	.st0{fill:none;stroke:#CCCCCC;stroke-miterlimit:10;}
	.st1{font-family:'OpenSans-Bold';}
	.st2{font-size:16px;}
	.st3{font-family:'OpenSans';}
	.st4{fill:#888888;}
	.st5{font-size:12px;}
	.st6{fill:#DF5A49;}
	.st7{fill:#45B29D;}
	.st8{fill:#2880B9;}
	.st9{fill:none;stroke:#000000;stroke-miterlimit:10;}
	.st10{fill:none;stroke:#45B29D;stroke-miterlimit:10;}
	.st11{fill:none;stroke:#DF5A49;stroke-miterlimit:10;}
	.st12{fill:none;stroke:#2880B9;stroke-miterlimit:10;}
	.st13{font-family:'Arial-BoldMT';}
</style>
<line class="st0" x1="200" y1="-207.4" x2="790" y2="-207.4"/>
<text transform="matrix(1 0 0 1 200 -228.4)" class="st1 st2">Title of Agatha Christie Book</text>
<text transform="matrix(1 0 0 1 427.6 -228.4)" class="st3 st2"> </text>
<text transform="matrix(1 0 0 1 436.0339 -228.4)" class="st4 st3 st5">Year published | Number of adaptations</text>
<rect x="426.4" y="-214.4" class="st6" width="9.3" height="14"/>
<rect x="600.8" y="-214.4" class="st7" width="9.3" height="14"/>
<rect x="520" y="-214.4" class="st8" width="9.3" height="14"/>
<rect x="351.1" y="-214.4" width="9.3" height="14"/>
<text transform="matrix(1 0 0 1 200.5703 -195.7485)" class="st4 st3 st5">First book was published</text>
<text transform="matrix(1 0 0 1 200.5703 -181.3485)" class="st4 st3 st5">in 1920</text>
<g>
	<g>
		<path class="st9" d="M356-191.3c1.5,13.8,11.3,24.4,23.3,24.4"/>
		<g>
			<path d="M356.1-190.9c1.1,1,3.2,1.3,4.6,1.3c-2-1.3-3.8-3.1-4.9-5.2c-0.8,2.3-2.4,4.2-4.2,5.8C353.1-189.3,355-189.8,356.1-190.9
				z"/>
		</g>
	</g>
</g>
<text transform="matrix(1 0 0 1 383.6035 -162.9244)" class="st3 st5">Book</text>
<text transform="matrix(1 0 0 1 552.4895 -162.9244)" class="st8 st3 st5">TV film</text>
<g>
	<g>
		<path class="st10" d="M605-191.3c1.5,13.8,11.3,24.4,23.3,24.4"/>
		<g>
			<path class="st7" d="M605.1-190.9c1.1,1,3.2,1.3,4.6,1.3c-2-1.3-3.8-3.1-4.9-5.2c-0.8,2.3-2.4,4.2-4.2,5.8
				C602.2-189.3,604.1-189.8,605.1-190.9z"/>
		</g>
	</g>
</g>
<text transform="matrix(1 0 0 1 632.6742 -162.9245)" class="st7 st3 st5">Film with cinematic release</text>
<g>
	<g>
		<path class="st11" d="M431.2-191.3c1.5,13.8,11.3,24.4,23.3,24.4"/>
		<g>
			<path class="st6" d="M431.3-190.9c1.1,1,3.2,1.3,4.6,1.3c-2-1.3-3.8-3.1-4.9-5.2c-0.8,2.3-2.4,4.2-4.2,5.8
				C428.4-189.3,430.2-189.8,431.3-190.9z"/>
		</g>
	</g>
</g>
<text transform="matrix(1 0 0 1 458.8459 -162.9244)" class="st6 st3 st5">TV series</text>
<g>
	<g>
		<path class="st12" d="M524.9-191.8c1.7,11.9,11.4,24.4,23.2,24.4"/>
		<g>
			<path class="st8" d="M525-191.4c1.1,1,3.2,1.3,4.7,1.2c-2-1.3-3.9-3-5-5.1c-0.7,2.3-2.3,4.2-4,5.9
				C522.1-189.7,523.9-190.2,525-191.4z"/>
		</g>
	</g>
</g>
<text transform="matrix(1 0 0 1 201.5703 -210.4214)"><tspan x="0" y="0" class="st4 st3 st5">Time </tspan><tspan x="30.7" y="0" class="st4 st13 st5">→</tspan><tspan x="42.7" y="0" class="st3 st5"> </tspan></text>
</svg>
